<svg width="40" height="40" viewBox="0 0 40 40" fill="none" xmlns="http://www.w3.org/2000/svg">
<circle cx="20" cy="20" r="20" fill="#10B981"/>
<path d="M29.44 18.72L13.96 10.98C13.7512 10.8833 13.5215 10.8403 13.2918 10.855C13.0621 10.8697 12.8398 10.9416 12.645 11.0642C12.4502 11.1868 12.2891 11.3561 12.1765 11.5568C12.0638 11.7575 12.0032 11.9832 12 12.2134V27.6867C11.9981 27.9229 12.0571 28.1557 12.1714 28.3624C12.2857 28.5692 12.4514 28.743 12.6525 28.867C12.8536 28.991 13.0832 29.061 13.3193 29.0703C13.5554 29.0796 13.7898 29.0278 14 28.92L29.44 21.18C29.6688 21.0652 29.861 20.8891 29.9954 20.6713C30.1298 20.4535 30.2009 20.2026 30.2009 19.9467C30.2009 19.6908 30.1298 19.4399 29.9954 19.2221C29.861 19.0043 29.6688 18.8282 29.44 18.7134V18.72Z" fill="black"/>
</svg>
